<?xml version="1.0" standalone="no"?><!DOCTYPE svg PUBLIC "-//W3C//DTD SVG 1.1//EN" "http://www.w3.org/Graphics/SVG/1.1/DTD/svg11.dtd"><svg t="1558426029692" class="icon" style="" viewBox="0 0 1024 1024" version="1.1" xmlns="http://www.w3.org/2000/svg" p-id="1303" xmlns:xlink="http://www.w3.org/1999/xlink" width="200" height="200"><defs><style type="text/css"></style></defs><path d="M957.908421 885.664452c-14.99878-43.626036-64.656022-49.871643-106.147365-67.443241-45.583614-19.258844-96.08914-41.63117-141.560892-60.340028l-38.918525-10.645498c-15.483514-10.692107-30.650086-46.217497-38.927847-63.882312-8.259117-1.174547-16.49959-2.349094-24.777351-3.542285 1.277087-27.312881 18.140228-28.795048 24.777351-49.666564 5.84477-18.438525 0.605917-42.367592 9.862467-59.407847 6.432044-11.838689 20.94609-11.931907 28.207774-22.064706 6.581193-9.228584 10.915831-25.271406 12.957305-36.569431 3.756686-20.601183 7.019317-48.836923-2.74061-69.279636-5.611725-11.745471-9.15401-12.864087-10.720073-27.145089-1.892326-17.2733 5.089704-73.660883 5.369359-85.844479 0.717779-31.628876-0.046609-34.192371-7.681166-64.991606 0 0-9.265872-27.909477-23.789239-36.317743l-28.953519-4.996486-17.897861-16.639417c-72.104142-44.502285-149.419172-13.283569-190.817296 3.542285-59.659536 19.417315-97.38487 78.023487-71.050778 203.187328 4.502431 21.374893-11.670897 30.948384-10.617533 42.600637 2.311807 25.523095 2.805863 86.851234 26.846791 101.961875 2.237233 1.39827 19.277487 5.686299 19.165626 4.511753l7.075248 74.537132c6.003241 16.508912 20.396104 18.317342 24.581593 41.640492l-18.429204 4.493109c-8.277761 17.655494-23.444333 53.180883-38.927847 63.87299-12.975949 3.551607-25.951898 7.112535-38.918525 10.645498-45.471752 18.718179-95.9866 41.081183-141.560892 60.340028-41.482021 17.571598-91.148584 23.817205-106.166008 67.443241 0 29.624688-2.777897 99.603459-2.01351 138.410122h396.698626l29.121311-199.486572-24.208721-51.25127 55.893527-26.884078 47.075103 26.32477-25.951898 52.780045 45.900555 198.517105h379.276177c0.77371-38.806664-2.032153-108.785435-2.032153-138.410122z" fill="#3A89FA" fill-opacity=".195" p-id="1304"></path></svg>