<?xml version="1.0" standalone="no"?><!DOCTYPE svg PUBLIC "-//W3C//DTD SVG 1.1//EN" "http://www.w3.org/Graphics/SVG/1.1/DTD/svg11.dtd"><svg t="1558426111707" class="icon" style="" viewBox="0 0 1024 1024" version="1.1" xmlns="http://www.w3.org/2000/svg" p-id="1428" xmlns:xlink="http://www.w3.org/1999/xlink" width="200" height="200"><defs><style type="text/css"></style></defs><path d="M982.185 970.78c-22.828 49.395-83.765 53.22-101.917 53.22H132.8c-12.832-0.745-64.839-6.417-88.44-51.08-9.963-18.831-17.797-50.367 1.419-93.506 35.015-78.403 116.136-86.02 135.513-86.7 138.093-21.49 182.941-69.263 183.36-69.717l3.225-3.37c14.734-13.97 19.764-38.505 21.086-59.832-89.31-68.29-145.799-200.172-145.799-345.114C243.165 82.389 386.513 0 509.291 0c122.81 0 266.19 82.422 266.19 314.68 0 144.943-56.423 276.792-145.734 345.083 1.387 21.391 6.416 45.991 21.022 59.863l4.03 4.343c0.097 0 45.171 47.418 182.587 68.777 31.63 1.264 91.019 18.572 129.58 76.912 30.114 45.57 24.891 80.185 15.186 101.123h0.033z" fill="#E4EEFC" p-id="1429"></path></svg>