<?xml version="1.0" standalone="no"?><!DOCTYPE svg PUBLIC "-//W3C//DTD SVG 1.1//EN" "http://www.w3.org/Graphics/SVG/1.1/DTD/svg11.dtd"><svg t="1558409435018" class="icon" style="" viewBox="0 0 1417 1024" version="1.1" xmlns="http://www.w3.org/2000/svg" p-id="3809" xmlns:xlink="http://www.w3.org/1999/xlink" width="276.7578125" height="200"><defs><style type="text/css"></style></defs><path d="M1169.69745067 61.99948325h-969.23617659c-76.43803497 0.0776723-138.38169125 62.02254222-138.45936356 138.45329542v623.08716088c0.0776723 76.43803497 62.02254222 138.38169125 138.45450903 138.45936356h969.24345837c76.43803497-0.0776723 138.38290489-62.02254222 138.45936356-138.45329541v-623.08716088c-0.0776723-76.43803497-62.02254222-138.38169125-138.4532954-138.45936357zM1238.92167111 823.54115318c-0.04975882 38.21841067-31.01794608 69.18659792-69.23150222 69.23757037h-969.22889481c-38.21355615-0.05704059-69.17446163-31.02280059-69.22300683-69.23150222v-623.08352c0.04854518-38.21841067 31.01794608-69.18659792 69.23150223-69.23635674h969.22889482c38.21355615 0.05704059 69.17446163 31.02280059 69.22422045 69.23150223z" fill="#ffffff" p-id="3810"></path><path d="M1038.88759467 539.41589333c37.38464711-31.77646459 61.57349925-78.50727348 61.57349925-131.2564717 0-95.43133867-77.64681008-173.07936237-173.07936237-173.07936238s-173.06479882 77.6480237-173.0647988 173.07936238c0 52.74919822 24.22526103 99.48000711 61.61112177 131.2564717-77.59826489 40.43813925-130.84505125 121.51223941-130.84505127 214.89861215 0 19.11830755 15.50047763 34.61757155 34.61757157 34.61757155 19.11830755 0 34.61757155-15.50047763 34.61757155-34.61757155 0-95.43133867 77.6480237-173.07814875 173.07814874-173.07814873s173.07936237 77.64681008 173.07936237 173.07814873c0 0 0 0 0 0 0 19.11830755 15.50047763 34.61757155 34.61757155 34.61757155 19.11830755 0 34.61757155-15.50047763 34.61757156-34.61757155 0 0 0 0 0 0-0.01092267-93.38637275-53.22251378-174.46168652-130.82320592-214.89861215zM823.54115318 408.158208c0-57.35249541 46.49172385-103.841792 103.84300564-103.841792s103.841792 46.49172385 103.841792 103.841792c0 57.35249541-46.49172385 103.841792-103.841792 103.841792-57.32458192-0.06310875-103.77746963-46.5184237-103.841792-103.83693748zM650.45936355 304.30306608h-415.38173155c-19.11830755 0-34.61757155 15.50047763-34.61757155 34.61757155s15.50047763 34.61757155 34.61757155 34.61757155h415.38173155c19.11830755 0 34.61757155-15.50047763 34.61757156-34.61757155s-15.50047763-34.61757155-34.61757156-34.61757155zM615.841792 477.38242845h-380.76416c-19.11830755 0-34.61757155 15.50047763-34.61757155 34.61757155s15.50047763 34.61757155 34.61757155 34.61757155h380.76416c19.11830755 0 34.61757155-15.50047763 34.61757155-34.61757155s-15.50047763-34.61757155-34.61757155-34.61757155zM512 650.45936355h-276.92115437c-19.11830755 0-34.61757155 15.50047763-34.61757155 34.61757156s15.50047763 34.61757155 34.61757155 34.61757156h276.92115437c19.11830755 0 34.61757155-15.50047763 34.61757155-34.61757156s-15.50047763-34.61757155-34.61757155-34.61757156z" fill="#ffffff" p-id="3811"></path></svg>