<?xml version="1.0" standalone="no"?><!DOCTYPE svg PUBLIC "-//W3C//DTD SVG 1.1//EN" "http://www.w3.org/Graphics/SVG/1.1/DTD/svg11.dtd"><svg t="1561620244052" class="icon" viewBox="0 0 1024 1024" version="1.1" xmlns="http://www.w3.org/2000/svg" p-id="4786" xmlns:xlink="http://www.w3.org/1999/xlink" width="64" height="64"><defs><style type="text/css"></style></defs><path d="M721.103308 1004.757961 183.413605 1004.757961c-52.768433 0-95.699343-42.93091-95.699343-95.699343L87.714262 222.009583c0-52.768433 42.93091-95.699343 95.699343-95.699343l537.689703 0c52.768433 0 95.699343 42.93091 95.699343 95.699343L816.802651 909.058618C816.802651 961.827051 773.871741 1004.757961 721.103308 1004.757961zM183.413605 138.473349c-46.062911 0-83.536234 37.474539-83.536234 83.536234L99.877371 909.058618c0 46.061695 37.474539 83.536234 83.536234 83.536234l537.689703 0c46.061695 0 83.536234-37.474539 83.536234-83.536234L804.639542 222.009583c0-46.061695-37.474539-83.536234-83.536234-83.536234L183.413605 138.473349z" p-id="4787" fill="#ffffff"></path><path d="M243.129606 335.415981l388.38024 0 0 12.163109-388.38024 0 0-12.163109Z" p-id="4788" fill="#ffffff"></path><path d="M243.129606 436.634943l388.38024 0 0 12.163109-388.38024 0 0-12.163109Z" p-id="4789" fill="#ffffff"></path><path d="M243.129606 549.746993l388.38024 0 0 12.163109-388.38024 0 0-12.163109Z" p-id="4790" fill="#ffffff"></path><path d="M840.852767 900.207524l0-12.163109c45.914521 0 83.269862-37.573061 83.269862-83.753954L924.122629 117.678081c0-46.182109-37.355341-83.75517-83.269862-83.75517l-538.217582 0c-45.915737 0-83.269862 37.573061-83.269862 83.75517l-12.163109 0c0-52.888848 42.811712-95.918279 95.432971-95.918279l538.217582 0c52.622476 0 95.432971 43.028215 95.432971 95.918279l0 686.611163C936.285738 857.179308 893.475243 900.207524 840.852767 900.207524z" p-id="4791" fill="#ffffff"></path></svg>