<?xml version="1.0" standalone="no"?><!DOCTYPE svg PUBLIC "-//W3C//DTD SVG 1.1//EN" "http://www.w3.org/Graphics/SVG/1.1/DTD/svg11.dtd"><svg t="1558424608271" class="icon" style="" viewBox="0 0 1719 1024" version="1.1" xmlns="http://www.w3.org/2000/svg" p-id="4999" xmlns:xlink="http://www.w3.org/1999/xlink" width="335.7421875" height="200"><defs><style type="text/css"></style></defs><path d="M729.313156 21.422132L491.269228 510.869595 255.047065 21.422132H0l491.269228 1002.577868L984.360221 21.422132h-255.047065zM1374.217878 361.484885c-87.444708-17.003138-137.846866-45.544119-137.846867-77.728629s45.544119-55.867452 113.55667-55.867452a146.348435 146.348435 0 0 1 145.133925 85.622943l13.966863 27.326471 207.681182-81.372159-13.359608-31.577255a352.207852 352.207852 0 0 0-352.815107-227.113339c-208.895692 0-348.564322 114.163924-348.564323 284.195301 0 182.176475 131.774317 247.760006 344.313538 296.947654 91.695492 22.468432 137.846866 56.474707 137.846867 101.411571s-69.227061 70.44157-128.130788 70.441571a177.318436 177.318436 0 0 1-100.197061-37.649805 194.321574 194.321574 0 0 1-69.834316-85.622943l-12.145098-34.006276-204.644907 94.124512 10.323333 29.148236a393.501186 393.501186 0 0 0 371.64001 261.72687 409.289814 409.289814 0 0 0 256.86883-76.51412 265.977654 265.977654 0 0 0 105.0551-219.219025c-1.21451-170.638632-114.771179-278.730007-338.848243-324.274126z" fill="#1296db" p-id="5000"></path></svg>